<mxfile host="Electron" agent="Mozilla/5.0 (Macintosh; Intel Mac OS X 10_15_7) AppleWebKit/537.36 (KHTML, like Gecko) draw.io/26.0.4 Chrome/128.0.6613.186 Electron/32.2.5 Safari/537.36" version="26.0.4">
  <diagram name="Page-1" id="l-IY-TbzwufaZJMc0qnZ">
    <mxGraphModel dx="950" dy="491" grid="1" gridSize="10" guides="1" tooltips="1" connect="1" arrows="1" fold="1" page="1" pageScale="1" pageWidth="50" pageHeight="50" math="0" shadow="0">
      <root>
        <mxCell id="0" />
        <mxCell id="1" parent="0" />
        <mxCell id="IoBk_qWd7TY8T21ndDZU-1" value="&lt;font style=&quot;font-size: 18px;&quot;&gt;&lt;b&gt;Frontend&lt;/b&gt;&lt;/font&gt;&lt;div&gt;&lt;font style=&quot;font-size: 18px;&quot;&gt;&lt;b&gt;&lt;br&gt;&lt;/b&gt;&lt;/font&gt;&lt;/div&gt;&lt;div&gt;&lt;font style=&quot;font-size: 18px;&quot;&gt;&lt;b&gt;&lt;br&gt;&lt;/b&gt;&lt;/font&gt;&lt;/div&gt;&lt;div&gt;&lt;font style=&quot;font-size: 18px;&quot;&gt;&lt;b&gt;&lt;br&gt;&lt;/b&gt;&lt;/font&gt;&lt;/div&gt;&lt;div&gt;&lt;font style=&quot;font-size: 18px;&quot;&gt;&lt;b&gt;&lt;br&gt;&lt;/b&gt;&lt;/font&gt;&lt;/div&gt;&lt;div&gt;&lt;font style=&quot;font-size: 18px;&quot;&gt;&lt;b&gt;&lt;br&gt;&lt;/b&gt;&lt;/font&gt;&lt;/div&gt;&lt;div&gt;&lt;font style=&quot;font-size: 18px;&quot;&gt;&lt;b&gt;&lt;br&gt;&lt;/b&gt;&lt;/font&gt;&lt;/div&gt;&lt;div&gt;&lt;font style=&quot;font-size: 18px;&quot;&gt;&lt;b&gt;&lt;br&gt;&lt;/b&gt;&lt;/font&gt;&lt;/div&gt;&lt;div&gt;&lt;font style=&quot;font-size: 18px;&quot;&gt;&lt;b&gt;&lt;br&gt;&lt;/b&gt;&lt;/font&gt;&lt;/div&gt;&lt;div&gt;&lt;font style=&quot;font-size: 18px;&quot;&gt;&lt;b&gt;&lt;br&gt;&lt;/b&gt;&lt;/font&gt;&lt;/div&gt;&lt;div&gt;&lt;font style=&quot;font-size: 18px;&quot;&gt;&lt;b&gt;&lt;br&gt;&lt;/b&gt;&lt;/font&gt;&lt;/div&gt;&lt;div&gt;&lt;br&gt;&lt;/div&gt;" style="html=1;dropTarget=0;whiteSpace=wrap;" vertex="1" parent="1">
          <mxGeometry x="-152.5" y="145" width="360" height="270" as="geometry" />
        </mxCell>
        <mxCell id="IoBk_qWd7TY8T21ndDZU-2" value="" style="shape=module;jettyWidth=8;jettyHeight=4;" vertex="1" parent="IoBk_qWd7TY8T21ndDZU-1">
          <mxGeometry x="1" width="20" height="20" relative="1" as="geometry">
            <mxPoint x="-27" y="7" as="offset" />
          </mxGeometry>
        </mxCell>
        <mxCell id="IoBk_qWd7TY8T21ndDZU-3" value="&lt;b&gt;&lt;font style=&quot;font-size: 18px;&quot;&gt;Backend&lt;/font&gt;&lt;/b&gt;&lt;div&gt;&lt;b&gt;&lt;font style=&quot;font-size: 18px;&quot;&gt;&lt;br&gt;&lt;/font&gt;&lt;/b&gt;&lt;/div&gt;&lt;div&gt;&lt;b&gt;&lt;font style=&quot;font-size: 18px;&quot;&gt;&lt;br&gt;&lt;/font&gt;&lt;/b&gt;&lt;/div&gt;" style="html=1;dropTarget=0;whiteSpace=wrap;" vertex="1" parent="1">
          <mxGeometry x="-120" y="520" width="300" height="280" as="geometry" />
        </mxCell>
        <mxCell id="IoBk_qWd7TY8T21ndDZU-4" value="" style="shape=module;jettyWidth=8;jettyHeight=4;" vertex="1" parent="IoBk_qWd7TY8T21ndDZU-3">
          <mxGeometry x="1" width="20" height="20" relative="1" as="geometry">
            <mxPoint x="-27" y="7" as="offset" />
          </mxGeometry>
        </mxCell>
        <mxCell id="IoBk_qWd7TY8T21ndDZU-5" value="&lt;b&gt;&lt;font style=&quot;font-size: 18px;&quot;&gt;Infrastruktur&lt;/font&gt;&lt;/b&gt;&lt;div&gt;&lt;b&gt;&lt;font style=&quot;font-size: 18px;&quot;&gt;&lt;br&gt;&lt;/font&gt;&lt;/b&gt;&lt;/div&gt;&lt;div&gt;&lt;b&gt;&lt;font style=&quot;font-size: 18px;&quot;&gt;&lt;br&gt;&lt;/font&gt;&lt;/b&gt;&lt;/div&gt;&lt;div&gt;&lt;b&gt;&lt;font style=&quot;font-size: 18px;&quot;&gt;&lt;br&gt;&lt;/font&gt;&lt;/b&gt;&lt;/div&gt;&lt;div&gt;&lt;b&gt;&lt;font style=&quot;font-size: 18px;&quot;&gt;&lt;br&gt;&lt;/font&gt;&lt;/b&gt;&lt;/div&gt;&lt;div&gt;&lt;b&gt;&lt;font style=&quot;font-size: 18px;&quot;&gt;&lt;br&gt;&lt;/font&gt;&lt;/b&gt;&lt;/div&gt;&lt;div&gt;&lt;b&gt;&lt;font style=&quot;font-size: 18px;&quot;&gt;&lt;br&gt;&lt;/font&gt;&lt;/b&gt;&lt;/div&gt;&lt;div&gt;&lt;b&gt;&lt;font style=&quot;font-size: 18px;&quot;&gt;&lt;br&gt;&lt;/font&gt;&lt;/b&gt;&lt;/div&gt;&lt;div&gt;&lt;b&gt;&lt;font style=&quot;font-size: 18px;&quot;&gt;&lt;br&gt;&lt;/font&gt;&lt;/b&gt;&lt;/div&gt;&lt;div&gt;&lt;b&gt;&lt;font style=&quot;font-size: 18px;&quot;&gt;&lt;br&gt;&lt;/font&gt;&lt;/b&gt;&lt;/div&gt;&lt;div&gt;&lt;br&gt;&lt;/div&gt;&lt;div&gt;&lt;br&gt;&lt;/div&gt;" style="html=1;dropTarget=0;whiteSpace=wrap;" vertex="1" parent="1">
          <mxGeometry x="-100" y="870" width="255" height="260" as="geometry" />
        </mxCell>
        <mxCell id="IoBk_qWd7TY8T21ndDZU-6" value="" style="shape=module;jettyWidth=8;jettyHeight=4;" vertex="1" parent="IoBk_qWd7TY8T21ndDZU-5">
          <mxGeometry x="1" width="20" height="20" relative="1" as="geometry">
            <mxPoint x="-27" y="7" as="offset" />
          </mxGeometry>
        </mxCell>
        <mxCell id="IoBk_qWd7TY8T21ndDZU-55" style="rounded=0;orthogonalLoop=1;jettySize=auto;html=1;entryX=1;entryY=1;entryDx=0;entryDy=0;" edge="1" parent="1" source="IoBk_qWd7TY8T21ndDZU-9" target="IoBk_qWd7TY8T21ndDZU-33">
          <mxGeometry relative="1" as="geometry" />
        </mxCell>
        <mxCell id="IoBk_qWd7TY8T21ndDZU-9" value="InfluxDB" style="html=1;dropTarget=0;whiteSpace=wrap;" vertex="1" parent="1">
          <mxGeometry x="-30" y="920" width="160" height="90" as="geometry" />
        </mxCell>
        <mxCell id="IoBk_qWd7TY8T21ndDZU-10" value="" style="shape=module;jettyWidth=8;jettyHeight=4;" vertex="1" parent="IoBk_qWd7TY8T21ndDZU-9">
          <mxGeometry x="1" width="20" height="20" relative="1" as="geometry">
            <mxPoint x="-27" y="7" as="offset" />
          </mxGeometry>
        </mxCell>
        <mxCell id="IoBk_qWd7TY8T21ndDZU-51" style="rounded=0;orthogonalLoop=1;jettySize=auto;html=1;entryX=0.5;entryY=1;entryDx=0;entryDy=0;exitX=0;exitY=0.5;exitDx=0;exitDy=0;" edge="1" parent="1" source="IoBk_qWd7TY8T21ndDZU-11" target="IoBk_qWd7TY8T21ndDZU-33">
          <mxGeometry relative="1" as="geometry" />
        </mxCell>
        <mxCell id="IoBk_qWd7TY8T21ndDZU-11" value="MQTT Broker" style="html=1;dropTarget=0;whiteSpace=wrap;" vertex="1" parent="1">
          <mxGeometry x="-50" y="1025" width="180" height="90" as="geometry" />
        </mxCell>
        <mxCell id="IoBk_qWd7TY8T21ndDZU-12" value="" style="shape=module;jettyWidth=8;jettyHeight=4;" vertex="1" parent="IoBk_qWd7TY8T21ndDZU-11">
          <mxGeometry x="1" width="20" height="20" relative="1" as="geometry">
            <mxPoint x="-27" y="7" as="offset" />
          </mxGeometry>
        </mxCell>
        <mxCell id="IoBk_qWd7TY8T21ndDZU-13" value="Database + MQTT Connector" style="html=1;dropTarget=0;whiteSpace=wrap;" vertex="1" parent="1">
          <mxGeometry x="-45" y="688" width="150" height="75" as="geometry" />
        </mxCell>
        <mxCell id="IoBk_qWd7TY8T21ndDZU-14" value="" style="shape=module;jettyWidth=8;jettyHeight=4;" vertex="1" parent="IoBk_qWd7TY8T21ndDZU-13">
          <mxGeometry x="1" width="20" height="20" relative="1" as="geometry">
            <mxPoint x="-27" y="7" as="offset" />
          </mxGeometry>
        </mxCell>
        <mxCell id="IoBk_qWd7TY8T21ndDZU-16" value="" style="rounded=0;orthogonalLoop=1;jettySize=auto;html=1;endArrow=halfCircle;endFill=0;endSize=6;strokeWidth=1;sketch=0;exitX=0.5;exitY=1;exitDx=0;exitDy=0;" edge="1" parent="1" source="IoBk_qWd7TY8T21ndDZU-27">
          <mxGeometry relative="1" as="geometry">
            <mxPoint x="325" y="680" as="sourcePoint" />
            <mxPoint x="30" y="470" as="targetPoint" />
          </mxGeometry>
        </mxCell>
        <mxCell id="IoBk_qWd7TY8T21ndDZU-17" value="" style="rounded=0;orthogonalLoop=1;jettySize=auto;html=1;endArrow=oval;endFill=0;sketch=0;sourcePerimeterSpacing=0;targetPerimeterSpacing=0;endSize=10;exitX=0.5;exitY=0;exitDx=0;exitDy=0;" edge="1" parent="1" source="IoBk_qWd7TY8T21ndDZU-26">
          <mxGeometry relative="1" as="geometry">
            <mxPoint x="285" y="680" as="sourcePoint" />
            <mxPoint x="30" y="470" as="targetPoint" />
          </mxGeometry>
        </mxCell>
        <mxCell id="IoBk_qWd7TY8T21ndDZU-18" value="" style="ellipse;whiteSpace=wrap;html=1;align=center;aspect=fixed;fillColor=none;strokeColor=none;resizable=0;perimeter=centerPerimeter;rotatable=0;allowArrows=0;points=[];outlineConnect=1;" vertex="1" parent="1">
          <mxGeometry x="-175" y="1015" width="10" height="10" as="geometry" />
        </mxCell>
        <mxCell id="IoBk_qWd7TY8T21ndDZU-50" style="rounded=0;orthogonalLoop=1;jettySize=auto;html=1;entryX=0;entryY=0.5;entryDx=0;entryDy=0;exitX=0.5;exitY=0;exitDx=0;exitDy=0;" edge="1" parent="1" source="IoBk_qWd7TY8T21ndDZU-19" target="IoBk_qWd7TY8T21ndDZU-13">
          <mxGeometry relative="1" as="geometry">
            <Array as="points" />
          </mxGeometry>
        </mxCell>
        <mxCell id="IoBk_qWd7TY8T21ndDZU-19" value="" style="rounded=0;whiteSpace=wrap;html=1;" vertex="1" parent="1">
          <mxGeometry x="-85" y="790" width="20" height="20" as="geometry" />
        </mxCell>
        <mxCell id="IoBk_qWd7TY8T21ndDZU-20" value="Websocket&lt;div&gt;Connector&lt;/div&gt;" style="html=1;dropTarget=0;whiteSpace=wrap;" vertex="1" parent="1">
          <mxGeometry x="-132.5" y="335" width="130" height="65" as="geometry" />
        </mxCell>
        <mxCell id="IoBk_qWd7TY8T21ndDZU-21" value="" style="shape=module;jettyWidth=8;jettyHeight=4;" vertex="1" parent="IoBk_qWd7TY8T21ndDZU-20">
          <mxGeometry x="1" width="20" height="20" relative="1" as="geometry">
            <mxPoint x="-27" y="7" as="offset" />
          </mxGeometry>
        </mxCell>
        <mxCell id="IoBk_qWd7TY8T21ndDZU-22" value="ThreeJS Render" style="html=1;dropTarget=0;whiteSpace=wrap;" vertex="1" parent="1">
          <mxGeometry x="-132.5" y="180" width="140" height="70" as="geometry" />
        </mxCell>
        <mxCell id="IoBk_qWd7TY8T21ndDZU-23" value="" style="shape=module;jettyWidth=8;jettyHeight=4;" vertex="1" parent="IoBk_qWd7TY8T21ndDZU-22">
          <mxGeometry x="1" width="20" height="20" relative="1" as="geometry">
            <mxPoint x="-27" y="7" as="offset" />
          </mxGeometry>
        </mxCell>
        <mxCell id="IoBk_qWd7TY8T21ndDZU-24" value="Graphs" style="html=1;dropTarget=0;whiteSpace=wrap;" vertex="1" parent="1">
          <mxGeometry x="42.5" y="180" width="140" height="70" as="geometry" />
        </mxCell>
        <mxCell id="IoBk_qWd7TY8T21ndDZU-25" value="" style="shape=module;jettyWidth=8;jettyHeight=4;" vertex="1" parent="IoBk_qWd7TY8T21ndDZU-24">
          <mxGeometry x="1" width="20" height="20" relative="1" as="geometry">
            <mxPoint x="-27" y="7" as="offset" />
          </mxGeometry>
        </mxCell>
        <mxCell id="IoBk_qWd7TY8T21ndDZU-26" value="" style="rounded=0;whiteSpace=wrap;html=1;" vertex="1" parent="1">
          <mxGeometry x="10" y="510" width="20" height="20" as="geometry" />
        </mxCell>
        <mxCell id="IoBk_qWd7TY8T21ndDZU-27" value="" style="rounded=0;whiteSpace=wrap;html=1;" vertex="1" parent="1">
          <mxGeometry x="17.5" y="405" width="20" height="20" as="geometry" />
        </mxCell>
        <mxCell id="IoBk_qWd7TY8T21ndDZU-30" value="" style="rounded=0;orthogonalLoop=1;jettySize=auto;html=1;endArrow=halfCircle;endFill=0;endSize=6;strokeWidth=1;sketch=0;exitX=0.5;exitY=1;exitDx=0;exitDy=0;" edge="1" parent="1" source="IoBk_qWd7TY8T21ndDZU-19">
          <mxGeometry relative="1" as="geometry">
            <mxPoint x="315" y="730" as="sourcePoint" />
            <mxPoint x="-75" y="840" as="targetPoint" />
          </mxGeometry>
        </mxCell>
        <mxCell id="IoBk_qWd7TY8T21ndDZU-31" value="" style="rounded=0;orthogonalLoop=1;jettySize=auto;html=1;endArrow=oval;endFill=0;sketch=0;sourcePerimeterSpacing=0;targetPerimeterSpacing=0;endSize=10;exitX=0.5;exitY=0;exitDx=0;exitDy=0;" edge="1" parent="1" source="IoBk_qWd7TY8T21ndDZU-33">
          <mxGeometry relative="1" as="geometry">
            <mxPoint x="-135" y="1030" as="sourcePoint" />
            <mxPoint x="-75" y="840" as="targetPoint" />
            <Array as="points" />
          </mxGeometry>
        </mxCell>
        <mxCell id="IoBk_qWd7TY8T21ndDZU-32" value="" style="ellipse;whiteSpace=wrap;html=1;align=center;aspect=fixed;fillColor=none;strokeColor=none;resizable=0;perimeter=centerPerimeter;rotatable=0;allowArrows=0;points=[];outlineConnect=1;" vertex="1" parent="1">
          <mxGeometry x="-180" y="1085" width="10" height="10" as="geometry" />
        </mxCell>
        <mxCell id="IoBk_qWd7TY8T21ndDZU-33" value="" style="rounded=0;whiteSpace=wrap;html=1;" vertex="1" parent="1">
          <mxGeometry x="-85" y="860" width="20" height="20" as="geometry" />
        </mxCell>
        <mxCell id="IoBk_qWd7TY8T21ndDZU-34" value="Redux Store" style="html=1;dropTarget=0;whiteSpace=wrap;" vertex="1" parent="1">
          <mxGeometry x="52.5" y="335" width="130" height="65" as="geometry" />
        </mxCell>
        <mxCell id="IoBk_qWd7TY8T21ndDZU-35" value="" style="shape=module;jettyWidth=8;jettyHeight=4;" vertex="1" parent="IoBk_qWd7TY8T21ndDZU-34">
          <mxGeometry x="1" width="20" height="20" relative="1" as="geometry">
            <mxPoint x="-27" y="7" as="offset" />
          </mxGeometry>
        </mxCell>
        <mxCell id="IoBk_qWd7TY8T21ndDZU-41" value="" style="ellipse;whiteSpace=wrap;html=1;align=center;aspect=fixed;fillColor=none;strokeColor=none;resizable=0;perimeter=centerPerimeter;rotatable=0;allowArrows=0;points=[];outlineConnect=1;" vertex="1" parent="1">
          <mxGeometry x="27.5" y="255" width="10" height="10" as="geometry" />
        </mxCell>
        <mxCell id="IoBk_qWd7TY8T21ndDZU-42" value="" style="rounded=0;orthogonalLoop=1;jettySize=auto;html=1;endArrow=halfCircle;endFill=0;endSize=6;strokeWidth=1;sketch=0;entryX=0.312;entryY=0.324;entryDx=0;entryDy=0;entryPerimeter=0;" edge="1" target="IoBk_qWd7TY8T21ndDZU-44" parent="1" source="IoBk_qWd7TY8T21ndDZU-20">
          <mxGeometry relative="1" as="geometry">
            <mxPoint x="47.5" y="368" as="sourcePoint" />
          </mxGeometry>
        </mxCell>
        <mxCell id="IoBk_qWd7TY8T21ndDZU-43" value="" style="rounded=0;orthogonalLoop=1;jettySize=auto;html=1;endArrow=oval;endFill=0;sketch=0;sourcePerimeterSpacing=0;targetPerimeterSpacing=0;endSize=10;exitX=0.5;exitY=0;exitDx=0;exitDy=0;" edge="1" target="IoBk_qWd7TY8T21ndDZU-44" parent="1" source="IoBk_qWd7TY8T21ndDZU-27">
          <mxGeometry relative="1" as="geometry">
            <mxPoint x="7.5" y="368" as="sourcePoint" />
          </mxGeometry>
        </mxCell>
        <mxCell id="IoBk_qWd7TY8T21ndDZU-44" value="" style="ellipse;whiteSpace=wrap;html=1;align=center;aspect=fixed;fillColor=none;strokeColor=none;resizable=0;perimeter=centerPerimeter;rotatable=0;allowArrows=0;points=[];outlineConnect=1;" vertex="1" parent="1">
          <mxGeometry x="22.5" y="375" width="10" height="10" as="geometry" />
        </mxCell>
        <mxCell id="IoBk_qWd7TY8T21ndDZU-47" value="" style="endArrow=diamondThin;endFill=0;endSize=24;html=1;rounded=0;entryX=0.5;entryY=1;entryDx=0;entryDy=0;exitX=0.5;exitY=0;exitDx=0;exitDy=0;" edge="1" parent="1" source="IoBk_qWd7TY8T21ndDZU-34" target="IoBk_qWd7TY8T21ndDZU-24">
          <mxGeometry width="160" relative="1" as="geometry">
            <mxPoint x="-7.5" y="285" as="sourcePoint" />
            <mxPoint x="152.5" y="285" as="targetPoint" />
          </mxGeometry>
        </mxCell>
        <mxCell id="IoBk_qWd7TY8T21ndDZU-48" value="" style="endArrow=diamondThin;endFill=0;endSize=24;html=1;rounded=0;entryX=1;entryY=1;entryDx=0;entryDy=0;exitX=0.5;exitY=0;exitDx=0;exitDy=0;" edge="1" parent="1" source="IoBk_qWd7TY8T21ndDZU-34" target="IoBk_qWd7TY8T21ndDZU-22">
          <mxGeometry width="160" relative="1" as="geometry">
            <mxPoint x="127.5" y="345" as="sourcePoint" />
            <mxPoint x="122.5" y="260" as="targetPoint" />
          </mxGeometry>
        </mxCell>
        <mxCell id="IoBk_qWd7TY8T21ndDZU-49" value="" style="endArrow=diamondThin;endFill=0;endSize=24;html=1;rounded=0;entryX=1;entryY=0.25;entryDx=0;entryDy=0;exitX=0.015;exitY=0.339;exitDx=0;exitDy=0;exitPerimeter=0;" edge="1" parent="1" source="IoBk_qWd7TY8T21ndDZU-34" target="IoBk_qWd7TY8T21ndDZU-20">
          <mxGeometry width="160" relative="1" as="geometry">
            <mxPoint x="137.5" y="355" as="sourcePoint" />
            <mxPoint x="132.5" y="270" as="targetPoint" />
          </mxGeometry>
        </mxCell>
        <mxCell id="IoBk_qWd7TY8T21ndDZU-54" style="rounded=0;orthogonalLoop=1;jettySize=auto;html=1;entryX=0.5;entryY=1;entryDx=0;entryDy=0;exitX=0.5;exitY=0;exitDx=0;exitDy=0;" edge="1" parent="1" source="IoBk_qWd7TY8T21ndDZU-52" target="IoBk_qWd7TY8T21ndDZU-26">
          <mxGeometry relative="1" as="geometry" />
        </mxCell>
        <mxCell id="IoBk_qWd7TY8T21ndDZU-52" value="Websocket Connector" style="html=1;dropTarget=0;whiteSpace=wrap;" vertex="1" parent="1">
          <mxGeometry x="-70" y="565" width="180" height="60" as="geometry" />
        </mxCell>
        <mxCell id="IoBk_qWd7TY8T21ndDZU-53" value="" style="shape=module;jettyWidth=8;jettyHeight=4;" vertex="1" parent="IoBk_qWd7TY8T21ndDZU-52">
          <mxGeometry x="1" width="20" height="20" relative="1" as="geometry">
            <mxPoint x="-27" y="7" as="offset" />
          </mxGeometry>
        </mxCell>
      </root>
    </mxGraphModel>
  </diagram>
</mxfile>
